<svg width="36" height="36" viewBox="0 0 36 36" fill="none" xmlns="http://www.w3.org/2000/svg">
<path d="M23.625 22.5H2.25L12.9375 3.375L23.625 22.5ZM18.6553 13.6765C20.5932 12.5848 22.8366 12.1615 25.039 12.4721C27.2414 12.7828 29.2802 13.8099 30.8405 15.395C32.4009 16.9801 33.3958 19.0348 33.6718 21.2418C33.9477 23.4488 33.4893 25.6853 32.3672 27.6057C31.2451 29.5262 29.522 31.0237 27.4638 31.867C25.4057 32.7103 23.1271 32.8524 20.9802 32.2714C18.8332 31.6904 16.9373 30.4186 15.5853 28.6525C14.2333 26.8864 13.5005 24.7242 13.5 22.5" fill="#3F3F42"/>
<path d="M18.6553 13.6765C20.5932 12.5848 22.8366 12.1615 25.039 12.4721C27.2414 12.7827 29.2802 13.8099 30.8405 15.395C32.4009 16.9801 33.3958 19.0348 33.6718 21.2418C33.9477 23.4488 33.4892 25.6853 32.3672 27.6057C31.2452 29.5262 29.522 31.0237 27.4638 31.867C25.4057 32.7103 23.1271 32.8524 20.9802 32.2714C18.8332 31.6904 16.9373 30.4186 15.5853 28.6525C14.2333 26.8864 13.5005 24.7242 13.5 22.5M23.625 22.5H2.25L12.9375 3.375L23.625 22.5Z" stroke="#9D9D9F" stroke-width="2.25" stroke-linejoin="round"/>
</svg>
