<svg width="35" height="34" viewBox="0 0 35 34" fill="none" xmlns="http://www.w3.org/2000/svg">
<path d="M15.4859 2.22594L1.97184 22.0477C1.79449 22.3072 1.67386 22.6012 1.61783 22.9105C1.5618 23.2198 1.57163 23.5374 1.64668 23.8426C1.72172 24.1479 1.8603 24.4338 2.05335 24.6819C2.24641 24.9299 2.48961 25.1344 2.76707 25.2821L16.2783 32.487C16.602 32.6598 16.9633 32.7502 17.3302 32.7502C17.6971 32.7502 18.0584 32.6598 18.3821 32.487L31.8961 25.2793C32.1736 25.1316 32.4168 24.9271 32.6099 24.679C32.8029 24.431 32.9415 24.145 33.0165 23.8398C33.0916 23.5346 33.1014 23.217 33.0454 22.9077C32.9893 22.5984 32.8687 22.3044 32.6914 22.0449L19.1801 2.22594C18.975 1.92518 18.6995 1.67906 18.3775 1.50898C18.0556 1.3389 17.6971 1.25 17.333 1.25C16.9689 1.25 16.6104 1.3389 16.2885 1.50898C15.9666 1.67906 15.6911 1.92518 15.4859 2.22594ZM17.333 1.25V32.75V1.25Z" fill="#3F3F42"/>
<path d="M17.333 1.25V32.75M15.4859 2.22594L1.97184 22.0477C1.79449 22.3072 1.67386 22.6012 1.61783 22.9105C1.5618 23.2198 1.57163 23.5374 1.64668 23.8426C1.72172 24.1479 1.8603 24.4338 2.05335 24.6819C2.24641 24.9299 2.48961 25.1344 2.76707 25.2821L16.2783 32.487C16.602 32.6598 16.9633 32.7502 17.3302 32.7502C17.6971 32.7502 18.0584 32.6598 18.3821 32.487L31.8961 25.2793C32.1736 25.1316 32.4168 24.9271 32.6099 24.679C32.8029 24.431 32.9415 24.145 33.0165 23.8398C33.0916 23.5346 33.1014 23.217 33.0454 22.9077C32.9893 22.5984 32.8687 22.3044 32.6914 22.0449L19.1801 2.22594C18.975 1.92518 18.6995 1.67906 18.3775 1.50898C18.0556 1.3389 17.6971 1.25 17.333 1.25C16.9689 1.25 16.6104 1.3389 16.2885 1.50898C15.9666 1.67906 15.6911 1.92518 15.4859 2.22594Z" stroke="#9D9D9F" stroke-width="2.25" stroke-linecap="round" stroke-linejoin="round"/>
</svg>
